<svg id="visual" viewBox="0 0 900 600" width="900" height="600" xmlns="http://www.w3.org/2000/svg" xmlns:xlink="http://www.w3.org/1999/xlink" version="1.1"><rect x="0" y="0" width="900" height="600" fill="#2774B9"></rect><path d="M0 375L39 373L78 397L117 416L157 396L196 393L235 378L274 415L313 363L352 370L391 380L430 361L470 404L509 380L548 373L587 397L626 394L665 412L704 365L743 411L783 408L822 359L861 364L900 374L900 0L861 0L822 0L783 0L743 0L704 0L665 0L626 0L587 0L548 0L509 0L470 0L430 0L391 0L352 0L313 0L274 0L235 0L196 0L157 0L117 0L78 0L39 0L0 0Z" fill="#4084b6"></path><path d="M0 334L39 353L78 384L117 363L157 339L196 338L235 331L274 351L313 380L352 346L391 327L430 323L470 371L509 369L548 337L587 333L626 366L665 364L704 324L743 347L783 372L822 349L861 373L900 385L900 0L861 0L822 0L783 0L743 0L704 0L665 0L626 0L587 0L548 0L509 0L470 0L430 0L391 0L352 0L313 0L274 0L235 0L196 0L157 0L117 0L78 0L39 0L0 0Z" fill="#3379b0"></path><path d="M0 298L39 350L78 310L117 336L157 331L196 302L235 328L274 310L313 314L352 334L391 345L430 340L470 298L509 303L548 342L587 326L626 297L665 342L704 319L743 321L783 330L822 296L861 339L900 312L900 0L861 0L822 0L783 0L743 0L704 0L665 0L626 0L587 0L548 0L509 0L470 0L430 0L391 0L352 0L313 0L274 0L235 0L196 0L157 0L117 0L78 0L39 0L0 0Z" fill="#276faa"></path><path d="M0 279L39 259L78 262L117 313L157 312L196 320L235 276L274 284L313 277L352 309L391 276L430 270L470 262L509 308L548 275L587 289L626 290L665 286L704 300L743 290L783 319L822 278L861 275L900 316L900 0L861 0L822 0L783 0L743 0L704 0L665 0L626 0L587 0L548 0L509 0L470 0L430 0L391 0L352 0L313 0L274 0L235 0L196 0L157 0L117 0L78 0L39 0L0 0Z" fill="#1b64a4"></path><path d="M0 270L39 246L78 231L117 269L157 260L196 265L235 243L274 285L313 271L352 270L391 277L430 238L470 242L509 273L548 289L587 277L626 242L665 274L704 257L743 226L783 263L822 254L861 240L900 282L900 0L861 0L822 0L783 0L743 0L704 0L665 0L626 0L587 0L548 0L509 0L470 0L430 0L391 0L352 0L313 0L274 0L235 0L196 0L157 0L117 0L78 0L39 0L0 0Z" fill="#0e599d"></path><path d="M0 243L39 234L78 245L117 202L157 201L196 223L235 221L274 239L313 202L352 240L391 222L430 205L470 241L509 213L548 223L587 208L626 227L665 193L704 208L743 207L783 218L822 248L861 207L900 206L900 0L861 0L822 0L783 0L743 0L704 0L665 0L626 0L587 0L548 0L509 0L470 0L430 0L391 0L352 0L313 0L274 0L235 0L196 0L157 0L117 0L78 0L39 0L0 0Z" fill="#034e96"></path><path d="M0 216L39 169L78 206L117 209L157 195L196 197L235 208L274 161L313 181L352 178L391 187L430 171L470 183L509 198L548 221L587 213L626 171L665 163L704 210L743 208L783 203L822 191L861 177L900 166L900 0L861 0L822 0L783 0L743 0L704 0L665 0L626 0L587 0L548 0L509 0L470 0L430 0L391 0L352 0L313 0L274 0L235 0L196 0L157 0L117 0L78 0L39 0L0 0Z" fill="#00448e"></path><path d="M0 158L39 186L78 169L117 144L157 158L196 188L235 171L274 168L313 139L352 186L391 182L430 193L470 144L509 154L548 182L587 171L626 167L665 131L704 158L743 143L783 130L822 187L861 144L900 135L900 0L861 0L822 0L783 0L743 0L704 0L665 0L626 0L587 0L548 0L509 0L470 0L430 0L391 0L352 0L313 0L274 0L235 0L196 0L157 0L117 0L78 0L39 0L0 0Z" fill="#003986"></path><path d="M0 137L39 109L78 111L117 109L157 126L196 115L235 105L274 98L313 132L352 159L391 98L430 135L470 160L509 117L548 157L587 97L626 99L665 97L704 146L743 155L783 136L822 110L861 126L900 124L900 0L861 0L822 0L783 0L743 0L704 0L665 0L626 0L587 0L548 0L509 0L470 0L430 0L391 0L352 0L313 0L274 0L235 0L196 0L157 0L117 0L78 0L39 0L0 0Z" fill="#002e7d"></path><path d="M0 87L39 116L78 92L117 67L157 64L196 75L235 79L274 79L313 77L352 92L391 125L430 90L470 72L509 114L548 124L587 72L626 103L665 127L704 86L743 65L783 83L822 83L861 83L900 94L900 0L861 0L822 0L783 0L743 0L704 0L665 0L626 0L587 0L548 0L509 0L470 0L430 0L391 0L352 0L313 0L274 0L235 0L196 0L157 0L117 0L78 0L39 0L0 0Z" fill="#022274"></path><path d="M0 35L39 57L78 59L117 37L157 38L196 79L235 46L274 36L313 90L352 88L391 88L430 84L470 70L509 90L548 37L587 48L626 69L665 85L704 70L743 63L783 72L822 57L861 42L900 59L900 0L861 0L822 0L783 0L743 0L704 0L665 0L626 0L587 0L548 0L509 0L470 0L430 0L391 0L352 0L313 0L274 0L235 0L196 0L157 0L117 0L78 0L39 0L0 0Z" fill="#08166a"></path><path d="M0 51L39 33L78 46L117 22L157 62L196 32L235 33L274 6L313 38L352 59L391 0L430 38L470 26L509 34L548 5L587 50L626 21L665 47L704 0L743 3L783 29L822 45L861 46L900 32L900 0L861 0L822 0L783 0L743 0L704 0L665 0L626 0L587 0L548 0L509 0L470 0L430 0L391 0L352 0L313 0L274 0L235 0L196 0L157 0L117 0L78 0L39 0L0 0Z" fill="#0d0760"></path></svg>